<?xml version="1.0" standalone="no"?>
<!DOCTYPE svg PUBLIC "-//W3C//DTD SVG 20010904//EN"
 "http://www.w3.org/TR/2001/REC-SVG-20010904/DTD/svg10.dtd">
<svg version="1.0" xmlns="http://www.w3.org/2000/svg"
 width="1280.000000pt" height="80.000000pt" viewBox="0 0 1280.000000 80.000000"
 preserveAspectRatio="xMidYMid meet">
<metadata>
Created by potrace 1.15, written by Peter Selinger 2001-2017
</metadata>
<g transform="translate(0.000000,80.000000) scale(0.100000,-0.100000)"
fill="#000000" stroke="none">

<path d="M4760 8105 c-285 -54 -561 -180 -1055 -483 -32 -20 -81 -37 -136 -48
l-85 -17 -125 68 c-379 208 -768 348 -1134 406 -105 17 -420 18 -510 1 -115
-21 -258 -71 -339 -118 -79 -46 -192 -145 -227 -198 -12 -17 0 -8 25 21 124
138 313 235 536 274 93 16 365 16 480 0 299 -43 641 -156 974 -322 187 -94
267 -139 261 -149 -2 -4 -18 -10 -34 -13 -23 -5 -51 5 -127 43 -153 78 -410
152 -519 149 -16 0 18 -9 76 -19 59 -11 155 -35 215 -55 124 -41 307 -130 284
-139 -125 -45 -228 -85 -287 -112 l-73 -33 -133 64 c-228 111 -409 158 -602
158 -80 0 -132 -6 -190 -22 -128 -34 -336 -145 -615 -327 -266 -175 -446 -275
-565 -315 -58 -20 -90 -24 -190 -24 -134 0 -182 14 -285 80 -48 31 -51 32 -22
7 84 -74 224 -118 342 -109 172 14 334 85 635 278 483 310 601 369 800 399
186 28 527 -57 740 -185 32 -19 59 -35 62 -35 16 0 193 -114 186 -119 -4 -4
-49 -37 -100 -74 -83 -61 -101 -69 -205 -96 -212 -56 -331 -75 -483 -75 -199
0 -317 35 -455 137 l-65 47 50 -45 c183 -167 457 -201 869 -109 60 13 111 22
113 20 6 -5 -262 -182 -362 -239 -174 -100 -329 -163 -466 -192 -110 -23 -287
-19 -384 9 -11 4 -6 0 12 -9 17 -8 72 -20 121 -26 271 -36 576 80 1043 396
133 90 139 93 292 138 l157 47 131 -75 c73 -41 172 -91 220 -112 49 -21 89
-41 89 -44 0 -8 -189 -65 -280 -84 -137 -29 -283 -45 -440 -46 -151 -2 -153
-2 -70 -10 104 -11 334 4 475 31 55 11 157 36 227 56 l128 36 152 -50 c291
-96 543 -131 728 -103 155 24 204 25 287 3 133 -36 269 -53 423 -53 303 0 549
63 947 244 l121 56 139 -63 c369 -168 638 -238 923 -238 155 0 263 13 405 48
116 28 148 29 270 9 104 -17 259 -19 360 -5 106 15 305 66 442 112 l123 41
102 -31 c251 -76 544 -113 733 -93 75 8 69 8 -77 10 -156 1 -323 19 -448 47
-112 25 -281 77 -273 84 4 3 46 24 93 45 47 21 144 71 216 111 l131 73 154
-45 c150 -43 157 -46 284 -133 189 -128 314 -202 455 -270 149 -72 246 -105
364 -126 130 -22 222 -18 346 15 63 17 44 21 -25 4 -80 -18 -248 -18 -341 2
-192 39 -405 143 -697 340 -96 65 -132 94 -112 90 17 -3 84 -17 150 -31 66
-14 171 -30 233 -36 243 -24 448 32 594 163 41 37 39 36 -22 -8 -86 -61 -143
-89 -232 -114 -166 -46 -371 -34 -662 39 -156 39 -157 40 -256 111 -55 40 -98
76 -95 80 8 12 180 110 194 110 6 0 11 4 11 8 0 11 217 115 296 142 95 33 202
58 306 70 229 29 425 -42 813 -293 260 -168 364 -231 454 -276 175 -89 342
-125 466 -102 66 12 166 56 205 90 15 13 1 8 -35 -13 -92 -53 -161 -69 -274
-64 -201 9 -314 65 -861 424 -173 113 -352 204 -475 240 -222 65 -509 17 -819
-138 l-120 -59 -85 39 c-47 22 -126 55 -176 73 -49 18 -94 36 -98 40 -12 9
178 101 278 135 44 14 134 37 200 49 66 13 105 24 87 24 -47 1 -214 -34 -308
-65 -43 -14 -130 -50 -192 -80 -107 -52 -116 -54 -149 -43 l-35 11 33 20 c83
51 328 172 455 226 530 225 990 292 1351 197 177 -47 293 -114 414 -242 40
-43 61 -60 45 -38 -150 207 -406 325 -741 341 -431 21 -958 -133 -1528 -447
l-77 -43 -88 18 c-78 16 -101 27 -227 106 -342 214 -663 361 -906 415 -114 26
-354 31 -464 10 -141 -26 -329 -103 -438 -178 -24 -16 -49 -19 -215 -21 -172
-2 -196 -5 -302 -33 -63 -17 -150 -44 -193 -61 l-79 -30 -66 25 c-210 79 -299
96 -510 99 l-182 2 -48 31 c-81 52 -233 119 -332 147 -81 22 -120 27 -260 30
-115 2 -188 -1 -240 -11z m327 -26 c52 -6 134 -22 182 -35 81 -23 262 -105
305 -137 18 -14 16 -16 -40 -31 -154 -43 -359 -134 -530 -237 l-81 -49 -134
20 c-299 44 -644 50 -914 16 -60 -8 -111 -13 -113 -11 -7 6 285 172 428 244
194 96 334 151 474 186 169 42 274 51 423 34z m2984 -19 c235 -48 616 -221
924 -419 44 -29 47 -32 20 -27 -121 21 -265 30 -485 30 -249 1 -374 -8 -563
-40 l-88 -15 -112 65 c-62 36 -159 87 -217 114 -105 49 -277 112 -308 112 -10
0 -23 4 -30 8 -13 9 139 92 238 130 189 73 400 87 621 42z m-2026 -205 c98
-20 295 -83 295 -94 0 -4 -21 -17 -47 -30 -27 -12 -94 -50 -150 -83 l-102 -60
-113 97 c-62 53 -139 116 -170 140 -35 26 -53 46 -45 49 24 11 253 -2 332 -19z
m1032 17 c8 -5 -13 -27 -60 -63 -40 -31 -114 -93 -166 -139 -76 -68 -97 -81
-110 -73 -70 44 -237 136 -261 145 -17 5 -30 13 -30 17 0 18 294 100 405 114
58 7 210 7 222 -1z m-1365 -59 c90 -66 288 -235 288 -246 0 -6 -26 -7 -62 -2
-135 15 -424 22 -646 13 -128 -4 -236 -9 -240 -10 -4 -1 -25 1 -46 6 l-40 8
70 40 c165 96 328 169 478 213 113 33 124 32 198 -22z m1633 3 c120 -41 238
-94 376 -171 132 -75 125 -80 -110 -70 -242 11 -563 8 -699 -6 -62 -6 -115 -9
-118 -6 -6 6 156 147 271 236 79 61 81 62 130 56 28 -3 95 -21 150 -39z m-850
-122 c136 -70 226 -126 222 -137 -2 -6 -39 -17 -83 -24 -43 -8 -113 -22 -155
-32 l-77 -18 -143 30 c-79 16 -154 31 -166 33 -13 3 -23 8 -23 12 0 12 302
181 325 182 6 0 51 -21 100 -46z m-1915 -89 c154 -15 281 -33 289 -41 11 -11
-23 -22 -86 -28 -160 -16 -490 -81 -756 -147 l-199 -49 -119 76 c-65 43 -119
80 -119 83 0 3 27 23 59 44 53 34 70 39 172 52 166 21 175 22 404 23 118 1
273 -5 355 -13z m4271 5 c189 -18 239 -30 301 -69 32 -20 57 -39 56 -43 -2 -4
-56 -41 -122 -83 l-119 -75 -176 44 c-223 57 -483 109 -676 136 -137 20 -204
35 -194 44 6 6 211 35 314 45 129 12 495 13 616 1z m-5268 -71 c-24 -15 -37
-18 -50 -10 -19 10 -14 14 32 24 43 10 49 6 18 -14z m5691 3 c9 -5 -13 -22
-29 -22 -5 0 -21 9 -35 21 l-25 20 40 -7 c22 -4 44 -9 49 -12z m-3379 -10 l50
-7 -117 -83 -117 -83 -136 51 c-75 27 -195 67 -268 88 l-132 37 75 6 c88 8
572 1 645 -9z m1645 9 c74 -6 81 -8 50 -15 -79 -19 -273 -80 -384 -122 l-120
-45 -50 36 c-28 20 -79 55 -113 78 -35 23 -63 45 -63 49 0 3 37 9 83 12 45 4
100 8 122 9 75 6 390 5 475 -2z m-4050 -28 l28 -16 -24 -19 c-26 -21 -45 -18
-84 11 l-24 19 34 10 c19 6 37 11 38 11 2 1 17 -7 32 -16z m1723 -23 c141 -39
417 -131 447 -150 8 -5 12 -11 10 -13 -28 -26 -388 -276 -462 -320 l-96 -59
-109 22 c-59 12 -243 53 -408 91 -166 38 -309 69 -318 69 -32 0 -16 15 61 59
42 24 175 106 294 182 l218 139 82 9 c46 4 95 9 109 10 14 0 91 -17 172 -39z
m2704 20 c28 -5 107 -49 245 -137 111 -71 240 -152 286 -179 45 -27 82 -52 82
-55 0 -4 -17 -10 -37 -14 -21 -3 -162 -35 -313 -70 -151 -35 -324 -73 -384
-84 l-109 -21 -56 31 c-77 44 -211 133 -374 252 l-138 100 54 23 c97 39 299
105 427 140 129 34 190 37 317 14z m1481 0 c10 -5 3 -13 -23 -28 -44 -26 -44
-26 -74 -3 l-24 19 29 15 c27 15 61 14 92 -3z m-3335 -4 c18 -7 50 -32 71 -54
l39 -41 -28 -11 c-60 -23 -172 -72 -214 -94 l-45 -23 -63 26 c-34 14 -61 30
-60 36 5 14 237 175 253 175 8 0 29 -6 47 -14z m830 -56 c56 -39 113 -79 127
-90 l25 -19 -65 -29 -64 -29 -101 47 c-55 26 -121 55 -147 65 l-47 17 51 47
c48 43 74 58 106 60 8 1 59 -31 115 -69z m-3495 22 c50 -34 61 -20 -115 -146
l-123 -87 -90 53 c-49 29 -90 56 -90 59 0 12 330 145 370 148 3 1 24 -12 48
-27z m1367 20 c-15 -13 -357 -231 -459 -292 l-90 -53 -70 11 c-62 11 -84 21
-169 79 -54 36 -100 70 -103 74 -4 7 210 61 409 104 81 18 451 83 477 84 8 1
10 -2 5 -7z m1499 -17 c51 -12 51 -12 23 -23 -64 -27 -74 -25 -114 12 l-38 37
39 -7 c21 -4 61 -12 90 -19z m386 20 c0 -3 -15 -19 -32 -35 -34 -31 -57 -32
-118 -7 -22 9 -16 12 55 27 97 22 95 21 95 15z m1535 -20 c157 -24 384 -69
575 -116 91 -23 166 -42 168 -44 2 -1 -44 -34 -101 -73 -92 -63 -113 -73 -176
-83 l-70 -12 -98 58 c-111 66 -433 272 -448 287 -6 6 -1 8 15 4 14 -3 75 -12
135 -21z m1372 -14 c140 -50 263 -101 263 -109 -1 -8 -171 -107 -184 -107 -11
0 -275 188 -276 197 0 5 78 57 87 58 1 0 51 -17 110 -39z m-257 -25 c0 -2 -41
-33 -90 -70 l-90 -68 -50 12 c-28 7 -50 15 -50 18 1 4 51 39 113 78 l112 72
28 -20 c15 -11 27 -21 27 -22z m-5625 -38 l110 -71 -45 -13 c-25 -8 -50 -14
-55 -14 -6 0 -52 31 -103 69 -91 68 -91 69 -69 84 12 9 29 16 37 16 8 0 64
-31 125 -71z m2799 24 c33 -10 61 -22 62 -27 1 -6 -29 -36 -67 -69 l-69 -58
-43 35 c-23 19 -58 49 -77 65 l-35 30 65 20 c80 26 91 26 164 4z m-2908 -69
c41 -32 74 -60 74 -63 0 -13 -235 -71 -320 -79 -105 -9 -147 0 -113 24 10 7
72 52 138 99 66 47 126 83 133 81 7 -3 47 -31 88 -62z m5900 -29 c74 -53 134
-100 134 -104 0 -15 -25 -17 -120 -8 -95 8 -320 64 -320 79 0 7 156 129 166
129 3 0 66 -43 140 -96z m-3182 -6 c39 -34 74 -65 79 -68 8 -7 -144 -120 -162
-120 -6 0 -71 30 -143 66 l-132 66 39 21 c57 29 217 96 234 96 7 1 45 -27 85
-61z m446 10 c164 -69 163 -56 5 -132 -76 -36 -141 -66 -145 -66 -4 0 -42 25
-85 56 -63 47 -74 59 -63 69 7 7 42 38 78 69 75 65 67 65 210 4z m522 -138
c79 -57 194 -137 256 -176 l113 -73 -45 -6 c-52 -8 -58 -5 -351 170 -93 56
-192 115 -220 130 l-50 29 60 27 c48 21 64 24 77 15 10 -6 82 -58 160 -116z
m-1462 97 l53 -24 -69 -38 c-38 -21 -130 -75 -204 -120 -285 -173 -309 -184
-367 -169 -18 5 3 23 125 104 81 54 199 136 262 184 63 47 122 85 131 86 9 0
40 -10 69 -23z m-1887 -42 c90 -60 89 -61 -41 -46 -54 7 -81 15 -107 35 -19
15 -35 31 -35 36 0 7 57 26 88 29 7 1 49 -24 95 -54z m5132 43 c25 -7 45 -15
45 -19 0 -4 -16 -19 -35 -33 -27 -21 -53 -29 -120 -37 -47 -6 -90 -9 -95 -7
-10 3 137 108 152 108 4 0 28 -5 53 -12z m-5324 -54 l24 -27 -34 7 c-18 3 -61
6 -95 7 l-61 1 55 18 c73 25 82 24 111 -6z m5484 7 l60 -19 -66 -1 c-37 -1
-82 -4 -100 -7 l-34 -5 30 25 c36 31 34 31 110 7z m-3170 -68 c74 -37 135 -70
135 -74 0 -3 -48 -29 -107 -57 -195 -92 -357 -126 -582 -120 l-133 3 158 95
c218 129 376 220 386 220 4 0 69 -30 143 -67z m989 15 c106 -61 414 -243 436
-258 10 -7 -43 -9 -175 -6 -167 3 -203 7 -294 31 -109 28 -231 76 -308 122
l-46 27 138 68 c75 37 142 68 148 68 5 0 51 -23 101 -52z m-538 -25 l76 -57
-76 -38 -76 -38 -75 37 c-41 21 -75 40 -74 43 0 4 140 108 147 110 1 0 37 -26
78 -57z m-3166 23 c-36 -13 -60 -11 -60 5 0 5 21 9 48 8 l47 -1 -35 -12z m418
6 c32 -5 65 -25 142 -86 55 -44 100 -82 100 -85 0 -8 -168 -81 -199 -87 -30
-6 -205 72 -364 162 l-102 58 70 22 c56 17 95 22 190 22 66 0 139 -3 163 -6z
m5680 -13 c39 -12 72 -25 72 -28 0 -9 -233 -133 -340 -181 l-95 -43 -47 17
c-27 9 -77 30 -113 46 l-66 30 105 84 c118 95 110 92 291 94 97 2 134 -2 193
-19z m142 12 c0 -16 -24 -18 -60 -5 l-35 12 48 1 c26 1 47 -3 47 -8z m-6350
-16 c19 -10 22 -15 10 -19 -42 -16 -175 -55 -178 -52 -4 4 83 67 108 78 22 10
32 9 60 -7z m6518 -32 c28 -20 51 -38 49 -39 -3 -3 -178 47 -186 53 -3 2 4 10
15 18 26 20 58 11 122 -32z m-5758 23 c49 -8 90 -22 119 -40 l44 -28 -49 -29
c-27 -16 -55 -29 -63 -29 -12 0 -181 126 -181 136 0 7 52 4 130 -10z m5010 10
c0 -7 -172 -136 -182 -136 -15 0 -108 50 -108 58 0 17 91 57 155 68 73 12 135
17 135 10z m-4557 -101 c105 -25 280 -66 387 -91 107 -24 211 -48 230 -53 l35
-8 -60 -28 c-33 -15 -94 -40 -135 -55 l-76 -28 -104 39 c-109 40 -369 166
-454 220 -37 24 -46 33 -35 40 8 5 15 9 17 9 1 0 89 -20 195 -45z m4177 35
c18 -12 23 -9 -121 -90 -126 -71 -229 -119 -363 -170 l-99 -38 -66 23 c-36 12
-97 37 -136 55 l-70 33 85 19 c132 31 660 155 705 166 22 5 42 10 45 11 3 0
12 -4 20 -9z m-4344 -86 c128 -73 249 -134 370 -184 54 -22 101 -43 104 -47
12 -13 -221 7 -294 26 -91 24 -232 90 -330 154 l-69 45 59 30 c32 17 60 31 62
32 1 0 46 -25 98 -56z m2037 24 c37 -18 67 -35 67 -38 0 -3 -12 -11 -27 -17
-16 -6 -85 -36 -155 -67 -452 -198 -798 -246 -1188 -165 l-55 12 87 23 c48 13
120 38 160 56 l73 32 210 1 c176 1 227 5 313 23 129 28 245 70 347 126 44 25
85 45 90 45 6 1 40 -13 78 -31z m374 -2 c106 -62 247 -113 393 -142 62 -13
141 -18 290 -19 l205 -1 76 -32 c43 -17 114 -42 159 -54 94 -25 91 -29 -48
-52 -350 -61 -671 -7 -1116 184 -157 68 -173 76 -165 84 11 10 125 65 136 66
7 0 38 -15 70 -34z m2048 7 c30 -15 55 -30 55 -34 0 -12 -157 -108 -228 -140
-118 -53 -227 -80 -347 -86 -120 -6 -125 -1 -30 36 101 40 275 125 385 189 58
34 106 62 107 62 2 0 27 -12 58 -27z m-4606 -115 c104 -68 234 -128 321 -148
74 -18 88 -33 25 -26 -27 3 -79 8 -115 11 -114 11 -439 93 -507 129 -23 12
-20 14 69 53 51 23 97 42 102 42 5 1 52 -27 105 -61z m4803 20 c56 -24 92 -45
85 -49 -48 -27 -310 -99 -447 -123 -89 -15 -247 -29 -239 -21 3 2 45 16 94 30
98 29 253 104 336 164 30 22 58 40 64 40 5 1 53 -18 107 -41z m-3715 -62 c-22
-17 -187 -72 -242 -81 -31 -5 -18 4 59 39 54 25 101 48 104 51 3 3 26 5 51 5
41 -1 44 -2 28 -14z m2594 -36 c67 -33 92 -48 69 -44 -59 10 -214 63 -235 78
-19 14 -18 15 21 16 29 0 71 -14 145 -50z" fill="#3E554F"/>
</g>
</svg>
